<svg width="110" height="42" viewBox="0 0 110 42" fill="none" xmlns="http://www.w3.org/2000/svg">
<g clip-path="url(#clip0_7_31)">
<rect width="110" height="42" fill="black"/>
<path d="M112.514 36.2976C112.033 36.3048 111.574 36.6094 111.237 37.1446C110.9 37.6799 110.712 38.4023 110.714 39.1539C110.717 39.9054 110.909 40.625 111.25 41.1552C111.59 41.6853 112.051 41.983 112.531 41.983C113.011 41.983 113.472 41.6853 113.813 41.1552C114.153 40.625 114.345 39.9054 114.348 39.1539C114.35 38.4023 114.162 37.6799 113.825 37.1446C113.488 36.6094 113.029 36.3048 112.549 36.2976H112.514ZM112.514 41.6575C112.199 41.6657 111.889 41.5276 111.624 41.2605C111.359 40.9935 111.151 40.6095 111.026 40.1573C110.9 39.705 110.863 39.2047 110.92 38.7196C110.976 38.2345 111.123 37.7865 111.342 37.4321C111.561 37.0778 111.842 36.833 112.15 36.7288C112.458 36.6246 112.779 36.6656 113.072 36.8466C113.365 37.0277 113.617 37.3406 113.797 37.7459C113.976 38.1512 114.075 38.6307 114.08 39.1236V39.1654C114.089 39.8121 113.933 40.4378 113.647 40.9048C113.361 41.3719 112.968 41.6422 112.555 41.6562H112.514M105.54 35.521H101.593V25.8474C101.593 23.5407 101.566 20.5712 99.5397 20.5712C97.4837 20.5712 97.1692 23.0845 97.1692 25.6795V35.5203H93.2217V15.6276H97.0113V18.3462H97.0643C97.4436 17.3315 97.9916 16.4967 98.65 15.9309C99.3084 15.365 100.053 15.0892 100.803 15.1328C104.804 15.1328 105.542 19.2508 105.542 24.6082L105.54 35.521ZM88.7677 12.9084C88.3146 12.9085 87.8717 12.6984 87.495 12.3046C87.1182 11.9109 86.8245 11.3511 86.6511 10.6961C86.4776 10.0412 86.4322 9.32045 86.5205 8.62508C86.6088 7.92971 86.8269 7.29092 87.1472 6.78952C87.4675 6.28811 87.8756 5.94659 88.32 5.80815C88.7643 5.66971 89.2249 5.74057 89.6435 6.01176C90.0622 6.28296 90.42 6.74231 90.6718 7.33173C90.9235 7.92115 91.058 8.61416 91.058 9.32313C91.0581 9.79387 90.9989 10.26 90.8838 10.695C90.7688 11.1299 90.6001 11.5251 90.3874 11.858C90.1747 12.191 89.9222 12.4551 89.6443 12.6353C89.3664 12.8155 89.0685 12.9083 88.7677 12.9084M90.7414 35.521H86.7899V15.6276H90.7414V35.521ZM107.508 0.00283923H84.8063C84.291 -0.00625995 83.7945 0.305126 83.4259 0.868572C83.0573 1.43202 82.8467 2.20143 82.8404 3.00772V38.6796C82.8464 39.4863 83.0569 40.2563 83.4255 40.8203C83.7941 41.3843 84.2908 41.6963 84.8063 41.6877H107.508C108.025 41.6979 108.523 41.3868 108.893 40.8228C109.263 40.2587 109.475 39.4879 109.482 38.6796V3.00515C109.475 2.19725 109.263 1.42697 108.892 0.863539C108.522 0.300107 108.024 -0.0103897 107.508 0.000265451M72.0963 20.429C70.1226 20.429 68.9384 22.4912 68.9384 25.4961C68.9384 28.501 70.1222 30.5652 72.0963 30.5652C74.0705 30.5652 75.2572 28.5061 75.2572 25.4961C75.2572 22.4861 74.0725 20.429 72.0963 20.429M78.8913 35.5094H75.2572V32.8713H75.2033C74.7474 33.8308 74.156 34.6127 73.4753 35.1561C72.7946 35.6994 72.043 35.9894 71.2789 36.0036C67.4861 36.0036 64.9877 31.7201 64.9877 25.6628C64.9877 20.0995 67.1986 14.9912 70.8332 14.9912C72.4668 14.9912 73.9928 15.6907 74.8879 17.6294H74.9397V6.16253H78.8909L78.8913 35.5094ZM59.9193 23.2531C59.9269 22.7519 59.8693 22.2536 59.7502 21.7883C59.631 21.3229 59.4528 20.9003 59.2262 20.546C58.9996 20.1916 58.7294 19.913 58.4319 19.7268C58.1345 19.5407 57.816 19.451 57.4958 19.4632C56.806 19.396 56.1271 19.7557 55.6053 20.4646C55.0834 21.1736 54.7606 22.175 54.7062 23.2531H59.9193ZM63.2631 32.0682C62.6072 33.313 61.7825 34.3139 60.8489 34.9984C59.9153 35.6829 58.896 36.0339 57.865 36.0261C53.9176 36.0261 50.7571 31.9029 50.7571 25.518C50.7571 19.1331 53.9172 15.0118 57.865 15.0118C61.5546 15.0118 63.8684 19.1299 63.8684 25.518V27.4548H54.7062C54.8203 28.5532 55.1842 29.55 55.7309 30.2617C56.2776 30.9734 56.9702 31.352 57.6812 31.3276C58.2431 31.3222 58.7951 31.0969 59.2871 30.6724C59.7792 30.2478 60.1955 29.6374 60.4983 28.8967L63.2631 32.0682ZM24.0215 15.6225H27.8122V18.341H27.8661C28.2447 17.3259 28.7925 16.4908 29.4508 15.9248C30.1091 15.3589 30.8533 15.0833 31.6038 15.1276C35.6068 15.1276 36.3436 19.2489 36.3436 24.603V35.512H32.3962V25.8403C32.3962 23.5317 32.3691 20.5641 30.3402 20.5641C28.2884 20.5641 27.9718 23.078 27.9718 25.6724V35.5094H24.0243L24.0215 15.6225ZM38.3453 6.16446H42.2928V23.708L46.7665 15.6115H51.6063L46.4252 24.8211L51.4973 35.5216H46.5358L42.3454 25.6885H42.2936V35.5203H38.3461L38.3453 6.16446ZM17.8852 15.6205H21.8327V35.5133H17.8852V15.6205ZM19.859 5.73078C20.3119 5.73091 20.7545 5.94118 21.1311 6.335C21.5076 6.72882 21.801 7.2885 21.9743 7.94328C22.1475 8.59807 22.1928 9.31854 22.1044 10.0136C22.016 10.7087 21.7979 11.3471 21.4776 11.8482C21.1574 12.3492 20.7493 12.6904 20.3051 12.8287C19.861 12.9669 19.4005 12.8959 18.9821 12.6246C18.5637 12.3534 18.2061 11.8941 17.9545 11.3049C17.7029 10.7156 17.5686 10.0228 17.5686 9.31412C17.5686 8.8435 17.6279 8.37748 17.743 7.94269C17.8581 7.5079 18.0268 7.11284 18.2395 6.78009C18.4522 6.44734 18.7046 6.1834 18.9825 6.00336C19.2604 5.82332 19.5582 5.7307 19.859 5.73078M4.35252 6.16897H8.46155V29.5903H16.0686V35.5242H4.35252V6.16897ZM112.802 39.3205C112.869 39.3216 112.936 39.3009 112.999 39.2597C113.061 39.2186 113.117 39.1578 113.164 39.0813C113.211 39.0047 113.247 38.9139 113.27 38.8146C113.293 38.7153 113.303 38.6096 113.299 38.504C113.299 37.9249 113.076 37.6482 112.618 37.6482H111.878V40.6801H112.156V39.3585H112.498L112.506 39.3746L113.037 40.6801H113.335L112.764 39.3289L112.802 39.3205ZM112.48 39.0168H112.157V37.9918H112.566C112.778 37.9918 113.019 38.0458 113.019 38.4789C113.019 38.9769 112.775 39.0168 112.478 39.0168" fill="white"/>
</g>
<defs>
<clipPath id="clip0_7_31">
<rect width="110" height="42" fill="white"/>
</clipPath>
</defs>
</svg>
