<svg width="100" height="28" viewBox="0 0 100 28" fill="none" xmlns="http://www.w3.org/2000/svg">
<path id="neflix" d="M94.6505 13.328L100 28C98.4234 27.7667 96.8477 27.4746 95.2433 27.2113L92.2298 19.1045L89.1334 26.5421C87.6136 26.2789 86.1208 26.1912 84.6009 25.9868L90.0343 13.1535L85.1063 0H89.6676L92.4261 7.34909L95.3829 0H99.9991L94.6505 13.328ZM81.5046 0H77.3658V25.4333C78.7172 25.5211 80.1243 25.5789 81.5046 25.7535V0ZM73.7901 25.1413C70.0181 24.8789 66.2451 24.6466 62.3883 24.5579V0.000112681H66.6109V20.4166C69.0325 20.4746 71.4532 20.6781 73.7901 20.7947V25.1413ZM57.8829 9.94651V14.321H52.1118V24.2666H47.9461V0H59.7703V4.37452H52.1127V9.94662H57.8838L57.8829 9.94651ZM40.8505 4.37452V24.5C39.4424 24.5 38.0074 24.5 36.6271 24.5579V4.37452H32.2632V0H45.2414V4.37452H40.8505ZM27.7029 14.5535C25.8452 14.5535 23.6487 14.5535 22.0722 14.6422V21.1456C24.5497 20.9701 27.0271 20.7666 29.5324 20.679V24.8789L17.8497 25.8421V0H29.5317V4.37452H22.0721V10.2666C23.7054 10.2666 26.2108 10.179 27.7027 10.179V14.5544L27.7029 14.5535ZM4.30637 12.1035V27.3868C2.78745 27.5622 1.43517 27.7666 0 28V0H4.02619L9.51549 15.8967V0H13.7389V26.1912C12.2469 26.4545 10.7263 26.5421 9.12176 26.7746L4.30637 12.1035Z" fill="white"/>
</svg>
