<svg width="158" height="58" viewBox="0 0 158 58" fill="none" xmlns="http://www.w3.org/2000/svg">
<path fill-rule="evenodd" clip-rule="evenodd" d="M20.3473 3.16315C10.0949 15.2032 0.264898 30.134 0.166328 41.2943C0.127937 45.4934 1.46849 49.1591 4.68396 51.9357C9.31157 55.9345 14.4102 57.3446 19.484 57.3529C26.8986 57.3633 34.2612 54.3719 40.026 52.0654C49.7347 48.1828 157.055 1.57773 157.055 1.57773C158.09 1.05894 157.896 0.41253 156.6 0.735218C156.077 0.865953 39.7656 32.3866 39.7656 32.3866C37.5625 33.0097 35.2859 33.3356 32.9964 33.3557C24.0577 33.4086 16.1036 28.4469 16.1679 17.9912C16.1928 13.9 17.4452 8.96635 20.3473 3.16315V3.16315Z" fill="white"/>
</svg>
