<svg width="120" height="39" viewBox="0 0 120 39" fill="none" xmlns="http://www.w3.org/2000/svg">
<path d="M119.549 9.69299L101.046 39H94.3276L99.6488 30.8595L85.7437 9.69299H92.7431L102.993 26.2357L113.211 9.69802L119.549 9.69299Z" fill="white"/>
<path d="M75.7313 20.872C70.304 21.0179 66.9353 21.8027 66.9353 24.6856C66.9353 26.5522 68.8068 28.5748 73.4606 28.5748C79.7425 28.5748 83.0987 25.8126 83.0987 21.2896V20.7864C80.8903 20.7915 78.1767 20.8066 75.7313 20.872V20.872ZM89.0749 26.8541C89.0749 28.2578 89.1248 29.6465 89.2746 30.8791H83.7225C83.5843 29.8768 83.5176 28.8689 83.5229 27.8604C80.516 30.8439 76.9353 31.7042 71.9696 31.7042C64.5898 31.6942 60.6409 28.5748 60.6409 24.9221C60.6409 19.6645 66.0058 17.8079 75.3196 17.6369C77.8648 17.5916 80.7281 17.5815 83.0924 17.5815V17.0784C83.0924 13.5565 80.2915 12.1075 75.4443 12.1075C71.8449 12.1075 69.2061 13.31 68.9129 15.3879H62.6247C63.2922 10.2107 70.0358 8.89758 75.9683 8.89758C83.0737 8.89758 89.0687 10.9352 89.0687 16.9979L89.0749 26.8541Z" fill="white"/>
<path d="M45.6067 28.3939C51.1712 28.3939 54.9641 25.1638 54.9641 20.2936C54.9641 15.4233 51.1587 12.1933 45.6067 12.1933C40.0546 12.1933 36.2493 15.4233 36.2493 20.2936C36.2493 25.1638 40.0546 28.3939 45.6067 28.3939ZM30.2606 0.400024H36.2431V12.5253C39.175 9.70784 43.2174 8.88774 47.1912 8.88774C53.8599 8.88774 61.2647 12.5153 61.2647 20.354C61.2647 26.8946 55.3758 31.6944 47.0789 31.6944C42.7121 31.6944 38.651 30.4366 36.1308 27.9511C36.131 28.9346 36.0622 29.9173 35.9249 30.8944H30.0734C30.1732 29.3851 30.2793 27.4531 30.2793 25.9085L30.2606 0.400024Z" fill="white"/>
<path d="M23.9724 18.3013C23.7416 13.7732 19.6992 12.0978 15.3823 12.0978C10.7348 12.0978 6.99185 13.9845 6.36803 18.3013H23.9724ZM6.22455 21.5313C6.54894 25.9136 10.2919 28.5047 15.4447 28.5047C19.013 28.5047 22.1883 27.3324 23.2488 24.7815H29.4496C28.202 29.9335 21.4023 31.6945 15.532 31.6945C4.85837 31.6945 0.129761 26.95 0.129761 20.5603C0.129761 13.5166 5.02056 8.88782 15.6319 8.88782C24.0722 8.88782 30.2606 12.4751 30.2606 20.2283V21.5313H6.22455Z" fill="white"/>
</svg>
