<svg width="116" height="23" viewBox="0 0 116 23" fill="none" xmlns="http://www.w3.org/2000/svg">
<path d="M9.0863 3.62908C7.72608 3.62908 7.31801 4.24204 7.31801 5.60725V7.86404H10.9634L10.6098 11.5418H7.31801V22.6585H2.93809V11.5418H-9.53674e-07V7.8919H2.93809V5.69084C2.93809 1.95739 4.40713 0.00708008 8.4606 0.00708008C9.30394 0.00708008 10.1745 0.0628032 11.0178 0.174249V3.62908" fill="white"/>
<path d="M11.2627 14.8016C11.2627 10.6781 13.167 7.55762 17.1932 7.55762C19.3696 7.55762 20.7026 8.69994 21.3555 10.1487V7.89196H25.545V22.6864H21.3283V20.4575C20.7298 21.8785 19.3424 22.9929 17.166 22.9929C13.167 22.9929 11.2355 19.9003 11.2355 15.7489M15.6426 15.8046C15.6426 18.0057 16.4315 19.4824 18.4719 19.4824C20.2674 19.4824 21.1651 18.145 21.1651 16.0275V14.523C21.1651 12.4055 20.2402 11.0682 18.4719 11.0682C16.4315 11.0682 15.6426 12.517 15.6426 14.7459V15.8046V15.8046Z" fill="white"/>
<path d="M34.6313 7.55762C36.318 7.55762 37.9503 7.91982 38.8208 8.56063L37.8415 11.7368C36.9437 11.2911 35.9371 11.0682 34.9306 11.0682C32.5638 11.0682 31.53 12.4612 31.53 14.8573V15.7211C31.53 18.1171 32.5638 19.5102 34.9306 19.5102C35.9371 19.5102 36.9437 19.2595 37.8415 18.8137L38.8208 21.9899C37.9503 22.6029 36.3452 22.9929 34.6313 22.9929C29.4897 22.9929 27.1773 20.1789 27.1773 15.6375V14.9409C27.1773 10.3995 29.4897 7.55762 34.6313 7.55762" fill="white"/>
<path d="M39.3921 15.8325V14.523C39.3921 10.3159 41.7317 7.55762 46.4925 7.55762C50.9812 7.55762 52.9672 10.3438 52.9672 14.4673V16.8355H43.772C43.8537 18.8694 44.7514 19.761 47.1726 19.761C48.7505 19.761 50.3283 19.4545 51.8246 18.8694L52.6135 21.9342C51.4709 22.5471 49.1041 23.0208 47.0094 23.0208C41.4597 22.9929 39.3921 20.1789 39.3921 15.8325M43.772 13.8822H49.0497V13.52C49.0497 11.904 48.424 10.6224 46.4925 10.6224C44.5338 10.6224 43.772 11.904 43.772 13.8822Z" fill="white"/>
<path d="M69.1811 15.7488C69.1811 19.8723 67.2495 22.9928 63.2233 22.9928C61.0469 22.9928 59.5235 21.8783 58.925 20.4574V22.6863H54.7899V0.452806L59.1698 0.0627441V9.95359C59.7955 8.6441 61.2101 7.58536 63.2505 7.58536C67.2495 7.58536 69.2083 10.678 69.2083 14.8294M64.8011 14.7179C64.8011 12.6283 64.0122 11.0681 61.9175 11.0681C60.122 11.0681 59.1698 12.3775 59.1698 14.495V16.0553C59.1698 18.1728 60.1492 19.4822 61.9175 19.4822C64.0122 19.4822 64.8011 17.922 64.8011 15.8324V14.7179Z" fill="white"/>
<path d="M70.6229 15.6375V14.8852C70.6229 10.6224 72.9897 7.55762 77.8049 7.55762C82.6201 7.55762 84.9869 10.6224 84.9869 14.8852V15.6375C84.9869 19.9003 82.6201 22.9651 77.8049 22.9651C72.9897 22.9651 70.6229 19.9281 70.6229 15.6375M80.6341 14.5787C80.6341 12.6284 79.8452 11.0682 77.8049 11.0682C75.7645 11.0682 74.9756 12.6284 74.9756 14.5787V15.9718C74.9756 17.9221 75.7645 19.4824 77.8049 19.4824C79.8452 19.4824 80.6341 17.9221 80.6341 15.9718V14.5787V14.5787Z" fill="white"/>
<path d="M86.4831 15.6375V14.8852C86.4831 10.6224 88.8499 7.55762 93.6651 7.55762C98.4803 7.55762 100.847 10.6224 100.847 14.8852V15.6375C100.847 19.9003 98.4803 22.9651 93.6651 22.9651C88.8499 22.9651 86.4831 19.9281 86.4831 15.6375M96.4944 14.5787C96.4944 12.6284 95.7054 11.0682 93.6651 11.0682C91.6248 11.0682 90.8358 12.6284 90.8358 14.5787V15.9718C90.8358 17.9221 91.6248 19.4824 93.6651 19.4824C95.7054 19.4824 96.4944 17.9221 96.4944 15.9718V14.5787V14.5787Z" fill="white"/>
<path d="M106.859 14.9408L111.185 7.86401H115.81L111.294 15.1916L116 22.6864H111.348L106.859 15.4424V22.6864H102.507V0.452835L106.859 0.0349121" fill="white"/>
</svg>
