<svg width="101" height="38" viewBox="0 0 101 38" fill="none" xmlns="http://www.w3.org/2000/svg">
<g clip-path="url(#clip0_6_11)">
<rect width="101" height="38" fill="white"/>
<path d="M12.4386 0.00341797H13.3368C16.4549 0.0815532 19.5222 1.52706 21.7252 4.08599C20.9118 5.04314 20.0814 5.96123 19.2849 6.91839C18.0479 5.62916 16.5566 4.63293 14.9297 4.28132C12.5234 3.69531 9.93058 4.22272 7.91397 5.80496C5.71095 7.46534 4.21967 10.2782 3.89769 13.2864C3.54182 16.2556 4.27051 19.381 5.94819 21.686C7.55809 23.9323 10.0153 25.3388 12.5573 25.4364C14.9297 25.5927 17.4039 24.7528 19.1324 22.8385C20.4881 21.4906 21.1151 19.4396 21.3185 17.4471C18.5054 17.4471 15.6923 17.4667 12.8792 17.4471V13.4232H24.7247C25.3348 17.7401 24.4536 22.604 21.6066 25.6904C19.7086 27.8782 17.0819 29.1674 14.4044 29.4214C11.8116 29.7144 9.1341 29.1479 6.8294 27.7024C4.06715 26.0029 1.86413 23.1315 0.77957 19.7521C-0.237209 16.6462 -0.254155 13.1301 0.694838 10.0047C1.5591 7.1528 3.21984 4.63293 5.35507 2.87489C7.40558 1.13638 9.89668 0.179222 12.4386 0.00341797Z" fill="white"/>
<path d="M80.3933 1.01917H84.0198V28.9135C82.8166 28.9135 81.5965 28.933 80.3933 28.8939C80.4102 19.6154 80.3933 10.3173 80.3933 1.01917Z" fill="white"/>
<path d="M32.7911 10.6884C35.028 10.2001 37.4513 10.747 39.2985 12.2902C40.9762 13.6576 42.1455 15.8063 42.5013 18.1503C42.9589 20.8655 42.3827 23.8347 40.8575 25.9834C39.2138 28.3861 36.5193 29.6753 33.8926 29.48C31.4862 29.3237 29.1476 27.9368 27.7242 25.6709C26.1143 23.1705 25.7245 19.7326 26.6057 16.8025C27.4869 13.6576 29.978 11.2549 32.7911 10.6884M33.2995 14.3998C32.3844 14.6733 31.5371 15.2789 30.927 16.1384C29.2832 18.4043 29.3849 22.0962 31.1982 24.2058C32.2319 25.4169 33.7909 25.9834 35.2314 25.6513C36.5701 25.3779 37.7394 24.3426 38.3834 22.9752C39.5018 20.6507 39.1799 17.4471 37.4683 15.6305C36.3668 14.4584 34.7569 13.9701 33.2995 14.3998Z" fill="white"/>
<path d="M50.7542 10.6884C53.3131 10.1219 56.1092 10.9423 58.0242 13.0129C61.1423 16.236 61.4812 22.2719 58.8206 25.9834C57.2107 28.3274 54.601 29.6167 52.0252 29.4799C49.568 29.4018 47.1446 27.9954 45.6872 25.6708C44.0435 23.1119 43.6876 19.5958 44.6196 16.6071C45.5517 13.5599 47.9919 11.2353 50.7542 10.6884M51.2626 14.3998C50.3475 14.6733 49.5002 15.2788 48.8901 16.1188C47.2633 18.3456 47.331 21.9789 49.0765 24.1081C50.1102 25.3778 51.7201 26.0029 53.2114 25.6513C54.5332 25.3583 55.7195 24.3425 56.3634 22.9752C57.4649 20.6311 57.143 17.4276 55.4144 15.6109C54.3129 14.4389 52.703 13.9701 51.2626 14.3998Z" fill="white"/>
<path d="M65.9889 11.8213C67.9377 10.4149 70.5305 10.0242 72.6319 11.2353C73.2928 11.5674 73.8351 12.1339 74.3604 12.7004C74.3773 12.173 74.3604 11.626 74.3773 11.0791C75.5127 11.0986 76.6482 11.0791 77.8005 11.0986V28.3274C77.7836 30.9254 77.2074 33.6797 75.5805 35.5745C73.8012 37.6646 71.0728 38.3092 68.6156 37.8795C65.9889 37.4302 63.7012 35.2229 62.6844 32.4295C63.7012 31.863 64.7688 31.4138 65.8195 30.8864C66.4126 32.4881 67.6158 33.8555 69.124 34.168C70.6322 34.4806 72.3777 34.0508 73.3606 32.6053C74.4112 31.1208 74.4112 29.0892 74.3604 27.2726C73.5809 28.1516 72.6827 28.933 71.5982 29.226C69.2426 29.9878 66.6498 29.0502 64.8366 27.214C63.0064 25.3778 61.9218 22.5454 62.0235 19.7325C62.0743 16.5485 63.6334 13.4817 65.9889 11.8213M69.4968 14.3217C68.4631 14.517 67.4971 15.1812 66.8362 16.0993C65.2433 18.287 65.2433 21.7836 66.8532 23.9323C67.7683 25.202 69.2426 25.9052 70.6661 25.7294C72.0049 25.5732 73.2419 24.5965 73.9029 23.2486C75.0213 20.9632 74.8349 17.8573 73.3267 15.8648C72.3946 14.6342 70.9034 14.0287 69.4968 14.3217V14.3217Z" fill="white"/>
<path d="M88.375 12.8176C90.4086 10.6298 93.5436 9.88749 96.1534 11.04C98.6275 12.1143 100.204 14.8295 101 17.6229C97.3227 19.3809 93.6623 21.1194 89.9849 22.8775C90.4933 23.9909 91.2728 25.0067 92.3235 25.4169C93.7978 26.0224 95.5602 25.8076 96.7973 24.6746C97.2888 24.2448 97.6785 23.6784 98.0514 23.1314C98.9834 23.8542 99.9154 24.5574 100.847 25.2801C99.5257 27.5656 97.3057 29.1674 94.9163 29.4213C92.2727 29.7925 89.4596 28.6204 87.748 26.2373C84.9349 22.4868 85.2061 16.1969 88.375 12.8176M90.1883 16.4313C89.6121 17.3885 89.3748 18.5605 89.3918 19.713C91.849 18.541 94.3062 17.3689 96.7634 16.1774C96.3567 15.0835 95.3738 14.4193 94.374 14.2435C92.7641 13.9115 91.0864 14.9077 90.1883 16.4313V16.4313Z" fill="white"/>
</g>
<defs>
<clipPath id="clip0_6_11">
<rect width="101" height="38" fill="white"/>
</clipPath>
</defs>
</svg>
